<?xml version="1.0" encoding="UTF-8" standalone="no"?><svg xmlns="http://www.w3.org/2000/svg" xmlns:xlink="http://www.w3.org/1999/xlink" contentStyleType="text/css" height="662px" preserveAspectRatio="none" style="width:2963px;height:662px;background:#FFFFFF;" version="1.1" viewBox="0 0 2963 662" width="2963px" zoomAndPan="magnify"><defs/><g><!--MD5=[251bd014ccdc6af4c0ec3da56bcf8e95]
cluster flutter_complete_guide::main.dart--><g id="cluster_flutter_complete_guide::main.dart"><path d="M8.5,235.5 L246.5,235.5 A3.75,3.75 0 0 1 249,238 L256,259.1094 L256.5,259.1094 A2.5,2.5 0 0 1 259,261.6094 L259,351 A2.5,2.5 0 0 1 256.5,353.5 L8.5,353.5 A2.5,2.5 0 0 1 6,351 L6,238 A2.5,2.5 0 0 1 8.5,235.5 " fill="none" style="stroke:#000000;stroke-width:1.5;"/><line style="stroke:#000000;stroke-width:1.5;" x1="6" x2="256" y1="259.1094" y2="259.1094"/><text fill="#000000" font-family="sans-serif" font-size="14" font-weight="bold" lengthAdjust="spacing" textLength="237" x="10" y="252.0332">flutter_complete_guide::main.dart</text></g><!--MD5=[1b91236ccc4e258431d00b8b19fdf6ca]
cluster flutter::src::widgets::framework.dart--><g id="cluster_flutter::src::widgets::framework.dart"><path d="M819.5,6 L1070.5,6 A3.75,3.75 0 0 1 1073,8.5 L1080,29.6094 L1080.5,29.6094 A2.5,2.5 0 0 1 1083,32.1094 L1083,103.5 A2.5,2.5 0 0 1 1080.5,106 L819.5,106 A2.5,2.5 0 0 1 817,103.5 L817,8.5 A2.5,2.5 0 0 1 819.5,6 " fill="none" style="stroke:#000000;stroke-width:1.5;"/><line style="stroke:#000000;stroke-width:1.5;" x1="817" x2="1080" y1="29.6094" y2="29.6094"/><text fill="#000000" font-family="sans-serif" font-size="14" font-weight="bold" lengthAdjust="spacing" textLength="250" x="821" y="22.5332">flutter::src::widgets::framework.dart</text></g><!--MD5=[7a85289766e559b638d7b7d29c307bbe]
cluster flutter_complete_guide::models::category.dart--><g id="cluster_flutter_complete_guide::models::category.dart"><path d="M1608.5,218 L1933.5,218 A3.75,3.75 0 0 1 1936,220.5 L1943,241.6094 L1943.5,241.6094 A2.5,2.5 0 0 1 1946,244.1094 L1946,368.5 A2.5,2.5 0 0 1 1943.5,371 L1608.5,371 A2.5,2.5 0 0 1 1606,368.5 L1606,220.5 A2.5,2.5 0 0 1 1608.5,218 " fill="none" style="stroke:#000000;stroke-width:1.5;"/><line style="stroke:#000000;stroke-width:1.5;" x1="1606" x2="1943" y1="241.6094" y2="241.6094"/><text fill="#000000" font-family="sans-serif" font-size="14" font-weight="bold" lengthAdjust="spacing" textLength="324" x="1610" y="234.5332">flutter_complete_guide::models::category.dart</text></g><!--MD5=[38be18612ed71996bdf82b0e8a8b954f]
cluster dart::ui--><g id="cluster_dart::ui"><path d="M1484.5,511 L1534.5,511 A3.75,3.75 0 0 1 1537,513.5 L1544,534.6094 L1577.5,534.6094 A2.5,2.5 0 0 1 1580,537.1094 L1580,608.5 A2.5,2.5 0 0 1 1577.5,611 L1484.5,611 A2.5,2.5 0 0 1 1482,608.5 L1482,513.5 A2.5,2.5 0 0 1 1484.5,511 " fill="none" style="stroke:#000000;stroke-width:1.5;"/><line style="stroke:#000000;stroke-width:1.5;" x1="1482" x2="1544" y1="534.6094" y2="534.6094"/><text fill="#000000" font-family="sans-serif" font-size="14" font-weight="bold" lengthAdjust="spacing" textLength="49" x="1486" y="527.5332">dart::ui</text></g><!--MD5=[3b3c3c7539cd4ca696710bbb099e74b8]
cluster flutter_complete_guide::models::meal.dart--><g id="cluster_flutter_complete_guide::models::meal.dart"><path d="M2350.5,130 L2647.5,130 A3.75,3.75 0 0 1 2650,132.5 L2657,153.6094 L2829.5,153.6094 A2.5,2.5 0 0 1 2832,156.1094 L2832,652.5 A2.5,2.5 0 0 1 2829.5,655 L2350.5,655 A2.5,2.5 0 0 1 2348,652.5 L2348,132.5 A2.5,2.5 0 0 1 2350.5,130 " fill="none" style="stroke:#000000;stroke-width:1.5;"/><line style="stroke:#000000;stroke-width:1.5;" x1="2348" x2="2657" y1="153.6094" y2="153.6094"/><text fill="#000000" font-family="sans-serif" font-size="14" font-weight="bold" lengthAdjust="spacing" textLength="296" x="2352" y="146.5332">flutter_complete_guide::models::meal.dart</text></g><!--MD5=[de232fdc1314c20d23c64be510ba818f]
cluster dart::core--><g id="cluster_dart::core"><path d="M2858.5,244.5 L2927.5,244.5 A3.75,3.75 0 0 1 2930,247 L2937,268.1094 L2953.5,268.1094 A2.5,2.5 0 0 1 2956,270.6094 L2956,342 A2.5,2.5 0 0 1 2953.5,344.5 L2858.5,344.5 A2.5,2.5 0 0 1 2856,342 L2856,247 A2.5,2.5 0 0 1 2858.5,244.5 " fill="none" style="stroke:#000000;stroke-width:1.5;"/><line style="stroke:#000000;stroke-width:1.5;" x1="2856" x2="2937" y1="268.1094" y2="268.1094"/><text fill="#000000" font-family="sans-serif" font-size="14" font-weight="bold" lengthAdjust="spacing" textLength="68" x="2860" y="261.0332">dart::core</text></g><!--MD5=[3671e467db5881d87af22ea9319f618b]
cluster flutter_complete_guide::screens::categories_screen.dart--><g id="cluster_flutter_complete_guide::screens::categories_screen.dart"><path d="M285.5,235.5 L687.5,235.5 A3.75,3.75 0 0 1 690,238 L697,259.1094 L697.5,259.1094 A2.5,2.5 0 0 1 700,261.6094 L700,351 A2.5,2.5 0 0 1 697.5,353.5 L285.5,353.5 A2.5,2.5 0 0 1 283,351 L283,238 A2.5,2.5 0 0 1 285.5,235.5 " fill="none" style="stroke:#000000;stroke-width:1.5;"/><line style="stroke:#000000;stroke-width:1.5;" x1="283" x2="697" y1="259.1094" y2="259.1094"/><text fill="#000000" font-family="sans-serif" font-size="14" font-weight="bold" lengthAdjust="spacing" textLength="401" x="287" y="252.0332">flutter_complete_guide::screens::categories_screen.dart</text></g><!--MD5=[0fa42bad3ee09f1ea74421349154dfac]
cluster flutter_complete_guide::screens::category_meals_screen.dart--><g id="cluster_flutter_complete_guide::screens::category_meals_screen.dart"><path d="M726.5,227 L1163.5,227 A3.75,3.75 0 0 1 1166,229.5 L1173,250.6094 L1173.5,250.6094 A2.5,2.5 0 0 1 1176,253.1094 L1176,359.5 A2.5,2.5 0 0 1 1173.5,362 L726.5,362 A2.5,2.5 0 0 1 724,359.5 L724,229.5 A2.5,2.5 0 0 1 726.5,227 " fill="none" style="stroke:#000000;stroke-width:1.5;"/><line style="stroke:#000000;stroke-width:1.5;" x1="724" x2="1173" y1="250.6094" y2="250.6094"/><text fill="#000000" font-family="sans-serif" font-size="14" font-weight="bold" lengthAdjust="spacing" textLength="436" x="728" y="243.5332">flutter_complete_guide::screens::category_meals_screen.dart</text></g><!--MD5=[ee40c7d5d6f82352545f461a525afaff]
cluster flutter_complete_guide::widgets::category_item.dart--><g id="cluster_flutter_complete_guide::widgets::category_item.dart"><path d="M1202.5,200.5 L1569.5,200.5 A3.75,3.75 0 0 1 1572,203 L1579,224.1094 L1579.5,224.1094 A2.5,2.5 0 0 1 1582,226.6094 L1582,386 A2.5,2.5 0 0 1 1579.5,388.5 L1202.5,388.5 A2.5,2.5 0 0 1 1200,386 L1200,203 A2.5,2.5 0 0 1 1202.5,200.5 " fill="none" style="stroke:#000000;stroke-width:1.5;"/><line style="stroke:#000000;stroke-width:1.5;" x1="1200" x2="1579" y1="224.1094" y2="224.1094"/><text fill="#000000" font-family="sans-serif" font-size="14" font-weight="bold" lengthAdjust="spacing" textLength="366" x="1204" y="217.0332">flutter_complete_guide::widgets::category_item.dart</text></g><!--MD5=[772c7a30a77d95b69e1cc80ebdac6361]
cluster flutter_complete_guide::widgets::meal_item.dart--><g id="cluster_flutter_complete_guide::widgets::meal_item.dart"><path d="M1972.5,183 L2311.5,183 A3.75,3.75 0 0 1 2314,185.5 L2321,206.6094 L2321.5,206.6094 A2.5,2.5 0 0 1 2324,209.1094 L2324,403.5 A2.5,2.5 0 0 1 2321.5,406 L1972.5,406 A2.5,2.5 0 0 1 1970,403.5 L1970,185.5 A2.5,2.5 0 0 1 1972.5,183 " fill="none" style="stroke:#000000;stroke-width:1.5;"/><line style="stroke:#000000;stroke-width:1.5;" x1="1970" x2="2321" y1="206.6094" y2="206.6094"/><text fill="#000000" font-family="sans-serif" font-size="14" font-weight="bold" lengthAdjust="spacing" textLength="338" x="1974" y="199.5332">flutter_complete_guide::widgets::meal_item.dart</text></g><!--MD5=[e247745a65ca66e29ab662f9d71c5a8a]
class flutter_complete_guide::main.dart::MyApp--><g id="elem_flutter_complete_guide::main.dart::MyApp"><rect codeLine="3" fill="#F1F1F1" height="65.6094" id="flutter_complete_guide::main.dart::MyApp" rx="2.5" ry="2.5" style="stroke:#181818;stroke-width:0.5;" width="119" x="123.5" y="271.5"/><ellipse cx="158.3" cy="287.5" fill="#ADD1B2" rx="11" ry="11" style="stroke:#181818;stroke-width:1.0;"/><path d="M161.0656,283.375 Q161.2219,283.1563 161.4094,283.0469 Q161.5969,282.9375 161.8156,282.9375 Q162.1906,282.9375 162.425,283.1953 Q162.6594,283.4531 162.6594,284.0625 L162.6594,285.5156 Q162.6594,286.125 162.425,286.3906 Q162.1906,286.6563 161.8156,286.6563 Q161.4719,286.6563 161.2688,286.4531 Q161.0656,286.2656 160.9563,285.75 Q160.9094,285.3906 160.7219,285.2031 Q160.3938,284.8281 159.7844,284.6094 Q159.175,284.3906 158.55,284.3906 Q157.7844,284.3906 157.1516,284.7188 Q156.5188,285.0469 156.0266,285.7969 Q155.5344,286.5469 155.5344,287.5781 L155.5344,288.6719 Q155.5344,289.9063 156.425,290.7266 Q157.3156,291.5469 158.9094,291.5469 Q159.8469,291.5469 160.5031,291.2969 Q160.8938,291.1406 161.3156,290.7031 Q161.5813,290.4375 161.7297,290.3594 Q161.8781,290.2813 162.0813,290.2813 Q162.4094,290.2813 162.6672,290.5391 Q162.925,290.7969 162.925,291.1406 Q162.925,291.4844 162.5813,291.8906 Q162.0813,292.4688 161.2844,292.7969 Q160.2063,293.25 158.9094,293.25 Q157.3938,293.25 156.1906,292.625 Q155.2063,292.125 154.5188,291.0547 Q153.8313,289.9844 153.8313,288.7031 L153.8313,287.5469 Q153.8313,286.2188 154.4484,285.0703 Q155.0656,283.9219 156.1594,283.3047 Q157.2531,282.6875 158.4875,282.6875 Q159.2219,282.6875 159.8703,282.8516 Q160.5188,283.0156 161.0656,283.375 Z " fill="#000000"/><text fill="#000000" font-family="sans-serif" font-size="14" lengthAdjust="spacing" textLength="43" x="176.7" y="293.2285">MyApp</text><line style="stroke:#181818;stroke-width:0.5;" x1="124.5" x2="241.5" y1="303.5" y2="303.5"/><line style="stroke:#181818;stroke-width:0.5;" x1="124.5" x2="241.5" y1="311.5" y2="311.5"/><ellipse cx="134.5" cy="325.8047" fill="#84BE84" rx="3" ry="3" style="stroke:#038048;stroke-width:1.0;"/><text fill="#000000" font-family="sans-serif" font-size="14" lengthAdjust="spacing" textLength="93" x="143.5" y="330.0332">Widget* build()</text></g><!--MD5=[efc9ff8382eabd0f0b822d1be18a98a9]
class flutter::src::widgets::framework.dart::StatelessWidget--><g id="elem_flutter::src::widgets::framework.dart::StatelessWidget"><rect fill="#F1F1F1" height="48" id="flutter::src::widgets::framework.dart::StatelessWidget" rx="2.5" ry="2.5" style="stroke:#181818;stroke-width:0.5;" width="134" x="883" y="42"/><ellipse cx="898" cy="58" fill="#ADD1B2" rx="11" ry="11" style="stroke:#181818;stroke-width:1.0;"/><path d="M900.7656,53.875 Q900.9219,53.6563 901.1094,53.5469 Q901.2969,53.4375 901.5156,53.4375 Q901.8906,53.4375 902.125,53.6953 Q902.3594,53.9531 902.3594,54.5625 L902.3594,56.0156 Q902.3594,56.625 902.125,56.8906 Q901.8906,57.1563 901.5156,57.1563 Q901.1719,57.1563 900.9688,56.9531 Q900.7656,56.7656 900.6563,56.25 Q900.6094,55.8906 900.4219,55.7031 Q900.0938,55.3281 899.4844,55.1094 Q898.875,54.8906 898.25,54.8906 Q897.4844,54.8906 896.8516,55.2188 Q896.2188,55.5469 895.7266,56.2969 Q895.2344,57.0469 895.2344,58.0781 L895.2344,59.1719 Q895.2344,60.4063 896.125,61.2266 Q897.0156,62.0469 898.6094,62.0469 Q899.5469,62.0469 900.2031,61.7969 Q900.5938,61.6406 901.0156,61.2031 Q901.2813,60.9375 901.4297,60.8594 Q901.5781,60.7813 901.7813,60.7813 Q902.1094,60.7813 902.3672,61.0391 Q902.625,61.2969 902.625,61.6406 Q902.625,61.9844 902.2813,62.3906 Q901.7813,62.9688 900.9844,63.2969 Q899.9063,63.75 898.6094,63.75 Q897.0938,63.75 895.8906,63.125 Q894.9063,62.625 894.2188,61.5547 Q893.5313,60.4844 893.5313,59.2031 L893.5313,58.0469 Q893.5313,56.7188 894.1484,55.5703 Q894.7656,54.4219 895.8594,53.8047 Q896.9531,53.1875 898.1875,53.1875 Q898.9219,53.1875 899.5703,53.3516 Q900.2188,53.5156 900.7656,53.875 Z " fill="#000000"/><text fill="#000000" font-family="sans-serif" font-size="14" lengthAdjust="spacing" textLength="102" x="912" y="63.7285">StatelessWidget</text><line style="stroke:#181818;stroke-width:0.5;" x1="884" x2="1016" y1="74" y2="74"/><line style="stroke:#181818;stroke-width:0.5;" x1="884" x2="1016" y1="82" y2="82"/></g><!--MD5=[3ecc250e8490901f960420c456f8bf79]
class flutter_complete_guide::models::category.dart::Category--><g id="elem_flutter_complete_guide::models::category.dart::Category"><rect codeLine="9" fill="#F1F1F1" height="100.8281" id="flutter_complete_guide::models::category.dart::Category" rx="2.5" ry="2.5" style="stroke:#181818;stroke-width:0.5;" width="100" x="1622" y="254"/><ellipse cx="1641.5" cy="270" fill="#ADD1B2" rx="11" ry="11" style="stroke:#181818;stroke-width:1.0;"/><path d="M1644.2656,265.875 Q1644.4219,265.6563 1644.6094,265.5469 Q1644.7969,265.4375 1645.0156,265.4375 Q1645.3906,265.4375 1645.625,265.6953 Q1645.8594,265.9531 1645.8594,266.5625 L1645.8594,268.0156 Q1645.8594,268.625 1645.625,268.8906 Q1645.3906,269.1563 1645.0156,269.1563 Q1644.6719,269.1563 1644.4688,268.9531 Q1644.2656,268.7656 1644.1563,268.25 Q1644.1094,267.8906 1643.9219,267.7031 Q1643.5938,267.3281 1642.9844,267.1094 Q1642.375,266.8906 1641.75,266.8906 Q1640.9844,266.8906 1640.3516,267.2188 Q1639.7188,267.5469 1639.2266,268.2969 Q1638.7344,269.0469 1638.7344,270.0781 L1638.7344,271.1719 Q1638.7344,272.4063 1639.625,273.2266 Q1640.5156,274.0469 1642.1094,274.0469 Q1643.0469,274.0469 1643.7031,273.7969 Q1644.0938,273.6406 1644.5156,273.2031 Q1644.7813,272.9375 1644.9297,272.8594 Q1645.0781,272.7813 1645.2813,272.7813 Q1645.6094,272.7813 1645.8672,273.0391 Q1646.125,273.2969 1646.125,273.6406 Q1646.125,273.9844 1645.7813,274.3906 Q1645.2813,274.9688 1644.4844,275.2969 Q1643.4063,275.75 1642.1094,275.75 Q1640.5938,275.75 1639.3906,275.125 Q1638.4063,274.625 1637.7188,273.5547 Q1637.0313,272.4844 1637.0313,271.2031 L1637.0313,270.0469 Q1637.0313,268.7188 1637.6484,267.5703 Q1638.2656,266.4219 1639.3594,265.8047 Q1640.4531,265.1875 1641.6875,265.1875 Q1642.4219,265.1875 1643.0703,265.3516 Q1643.7188,265.5156 1644.2656,265.875 Z " fill="#000000"/><text fill="#000000" font-family="sans-serif" font-size="14" lengthAdjust="spacing" textLength="58" x="1656.5" y="275.7285">Category</text><line style="stroke:#181818;stroke-width:0.5;" x1="1623" x2="1721" y1="286" y2="286"/><ellipse cx="1633" cy="300.3047" fill="none" rx="3" ry="3" style="stroke:#038048;stroke-width:1.0;"/><text fill="#000000" font-family="sans-serif" font-size="14" lengthAdjust="spacing" textLength="57" x="1642" y="304.5332">String* id</text><ellipse cx="1633" cy="317.9141" fill="none" rx="3" ry="3" style="stroke:#038048;stroke-width:1.0;"/><text fill="#000000" font-family="sans-serif" font-size="14" lengthAdjust="spacing" textLength="68" x="1642" y="322.1426">String* title</text><ellipse cx="1633" cy="335.5234" fill="none" rx="3" ry="3" style="stroke:#038048;stroke-width:1.0;"/><text fill="#000000" font-family="sans-serif" font-size="14" lengthAdjust="spacing" textLength="74" x="1642" y="339.752">Color* color</text><line style="stroke:#181818;stroke-width:0.5;" x1="1623" x2="1721" y1="346.8281" y2="346.8281"/></g><!--MD5=[7ee8008bd02dd47c47fead127d6fe347]
class dart::ui::Color--><g id="elem_dart::ui::Color"><rect fill="#F1F1F1" height="48" id="dart::ui::Color" rx="2.5" ry="2.5" style="stroke:#181818;stroke-width:0.5;" width="66" x="1498" y="547"/><ellipse cx="1513" cy="563" fill="#ADD1B2" rx="11" ry="11" style="stroke:#181818;stroke-width:1.0;"/><path d="M1515.7656,558.875 Q1515.9219,558.6563 1516.1094,558.5469 Q1516.2969,558.4375 1516.5156,558.4375 Q1516.8906,558.4375 1517.125,558.6953 Q1517.3594,558.9531 1517.3594,559.5625 L1517.3594,561.0156 Q1517.3594,561.625 1517.125,561.8906 Q1516.8906,562.1563 1516.5156,562.1563 Q1516.1719,562.1563 1515.9688,561.9531 Q1515.7656,561.7656 1515.6563,561.25 Q1515.6094,560.8906 1515.4219,560.7031 Q1515.0938,560.3281 1514.4844,560.1094 Q1513.875,559.8906 1513.25,559.8906 Q1512.4844,559.8906 1511.8516,560.2188 Q1511.2188,560.5469 1510.7266,561.2969 Q1510.2344,562.0469 1510.2344,563.0781 L1510.2344,564.1719 Q1510.2344,565.4063 1511.125,566.2266 Q1512.0156,567.0469 1513.6094,567.0469 Q1514.5469,567.0469 1515.2031,566.7969 Q1515.5938,566.6406 1516.0156,566.2031 Q1516.2813,565.9375 1516.4297,565.8594 Q1516.5781,565.7813 1516.7813,565.7813 Q1517.1094,565.7813 1517.3672,566.0391 Q1517.625,566.2969 1517.625,566.6406 Q1517.625,566.9844 1517.2813,567.3906 Q1516.7813,567.9688 1515.9844,568.2969 Q1514.9063,568.75 1513.6094,568.75 Q1512.0938,568.75 1510.8906,568.125 Q1509.9063,567.625 1509.2188,566.5547 Q1508.5313,565.4844 1508.5313,564.2031 L1508.5313,563.0469 Q1508.5313,561.7188 1509.1484,560.5703 Q1509.7656,559.4219 1510.8594,558.8047 Q1511.9531,558.1875 1513.1875,558.1875 Q1513.9219,558.1875 1514.5703,558.3516 Q1515.2188,558.5156 1515.7656,558.875 Z " fill="#000000"/><text fill="#000000" font-family="sans-serif" font-size="14" lengthAdjust="spacing" textLength="34" x="1527" y="568.7285">Color</text><line style="stroke:#181818;stroke-width:0.5;" x1="1499" x2="1563" y1="579" y2="579"/><line style="stroke:#181818;stroke-width:0.5;" x1="1499" x2="1563" y1="587" y2="587"/></g><!--MD5=[dd6447021dcaa05cbd4310c0aa0f3fe9]
class flutter_complete_guide::models::meal.dart::Meal--><g id="elem_flutter_complete_guide::models::meal.dart::Meal"><rect codeLine="17" fill="#F1F1F1" height="276.9219" id="flutter_complete_guide::models::meal.dart::Meal" rx="2.5" ry="2.5" style="stroke:#181818;stroke-width:0.5;" width="185" x="2486.5" y="166"/><ellipse cx="2559.75" cy="182" fill="#ADD1B2" rx="11" ry="11" style="stroke:#181818;stroke-width:1.0;"/><path d="M2562.5156,177.875 Q2562.6719,177.6563 2562.8594,177.5469 Q2563.0469,177.4375 2563.2656,177.4375 Q2563.6406,177.4375 2563.875,177.6953 Q2564.1094,177.9531 2564.1094,178.5625 L2564.1094,180.0156 Q2564.1094,180.625 2563.875,180.8906 Q2563.6406,181.1563 2563.2656,181.1563 Q2562.9219,181.1563 2562.7188,180.9531 Q2562.5156,180.7656 2562.4063,180.25 Q2562.3594,179.8906 2562.1719,179.7031 Q2561.8438,179.3281 2561.2344,179.1094 Q2560.625,178.8906 2560,178.8906 Q2559.2344,178.8906 2558.6016,179.2188 Q2557.9688,179.5469 2557.4766,180.2969 Q2556.9844,181.0469 2556.9844,182.0781 L2556.9844,183.1719 Q2556.9844,184.4063 2557.875,185.2266 Q2558.7656,186.0469 2560.3594,186.0469 Q2561.2969,186.0469 2561.9531,185.7969 Q2562.3438,185.6406 2562.7656,185.2031 Q2563.0313,184.9375 2563.1797,184.8594 Q2563.3281,184.7813 2563.5313,184.7813 Q2563.8594,184.7813 2564.1172,185.0391 Q2564.375,185.2969 2564.375,185.6406 Q2564.375,185.9844 2564.0313,186.3906 Q2563.5313,186.9688 2562.7344,187.2969 Q2561.6563,187.75 2560.3594,187.75 Q2558.8438,187.75 2557.6406,187.125 Q2556.6563,186.625 2555.9688,185.5547 Q2555.2813,184.4844 2555.2813,183.2031 L2555.2813,182.0469 Q2555.2813,180.7188 2555.8984,179.5703 Q2556.5156,178.4219 2557.6094,177.8047 Q2558.7031,177.1875 2559.9375,177.1875 Q2560.6719,177.1875 2561.3203,177.3516 Q2561.9688,177.5156 2562.5156,177.875 Z " fill="#000000"/><text fill="#000000" font-family="sans-serif" font-size="14" lengthAdjust="spacing" textLength="30" x="2580.25" y="187.7285">Meal</text><line style="stroke:#181818;stroke-width:0.5;" x1="2487.5" x2="2670.5" y1="198" y2="198"/><ellipse cx="2497.5" cy="212.3047" fill="none" rx="3" ry="3" style="stroke:#038048;stroke-width:1.0;"/><text fill="#000000" font-family="sans-serif" font-size="14" lengthAdjust="spacing" textLength="57" x="2506.5" y="216.5332">String* id</text><ellipse cx="2497.5" cy="229.9141" fill="none" rx="3" ry="3" style="stroke:#038048;stroke-width:1.0;"/><text fill="#000000" font-family="sans-serif" font-size="14" lengthAdjust="spacing" textLength="155" x="2506.5" y="234.1426">List&lt;String*&gt;* categories</text><ellipse cx="2497.5" cy="247.5234" fill="none" rx="3" ry="3" style="stroke:#038048;stroke-width:1.0;"/><text fill="#000000" font-family="sans-serif" font-size="14" lengthAdjust="spacing" textLength="68" x="2506.5" y="251.752">String* title</text><ellipse cx="2497.5" cy="265.1328" fill="none" rx="3" ry="3" style="stroke:#038048;stroke-width:1.0;"/><text fill="#000000" font-family="sans-serif" font-size="14" lengthAdjust="spacing" textLength="101" x="2506.5" y="269.3613">String* imageUrl</text><ellipse cx="2497.5" cy="282.7422" fill="none" rx="3" ry="3" style="stroke:#038048;stroke-width:1.0;"/><text fill="#000000" font-family="sans-serif" font-size="14" lengthAdjust="spacing" textLength="159" x="2506.5" y="286.9707">List&lt;String*&gt;* ingredients</text><ellipse cx="2497.5" cy="300.3516" fill="none" rx="3" ry="3" style="stroke:#038048;stroke-width:1.0;"/><text fill="#000000" font-family="sans-serif" font-size="14" lengthAdjust="spacing" textLength="123" x="2506.5" y="304.5801">List&lt;String*&gt;* steps</text><ellipse cx="2497.5" cy="317.9609" fill="none" rx="3" ry="3" style="stroke:#038048;stroke-width:1.0;"/><text fill="#000000" font-family="sans-serif" font-size="14" lengthAdjust="spacing" textLength="76" x="2506.5" y="322.1895">int* duration</text><ellipse cx="2497.5" cy="335.5703" fill="none" rx="3" ry="3" style="stroke:#038048;stroke-width:1.0;"/><text fill="#000000" font-family="sans-serif" font-size="14" lengthAdjust="spacing" textLength="142" x="2506.5" y="339.7988">Complexity* complexity</text><ellipse cx="2497.5" cy="353.1797" fill="none" rx="3" ry="3" style="stroke:#038048;stroke-width:1.0;"/><text fill="#000000" font-family="sans-serif" font-size="14" lengthAdjust="spacing" textLength="156" x="2506.5" y="357.4082">Affordability* affordability</text><ellipse cx="2497.5" cy="370.7891" fill="none" rx="3" ry="3" style="stroke:#038048;stroke-width:1.0;"/><text fill="#000000" font-family="sans-serif" font-size="14" lengthAdjust="spacing" textLength="118" x="2506.5" y="375.0176">bool* isGlutenFree</text><ellipse cx="2497.5" cy="388.3984" fill="none" rx="3" ry="3" style="stroke:#038048;stroke-width:1.0;"/><text fill="#000000" font-family="sans-serif" font-size="14" lengthAdjust="spacing" textLength="126" x="2506.5" y="392.627">bool* isLactoseFree</text><ellipse cx="2497.5" cy="406.0078" fill="none" rx="3" ry="3" style="stroke:#038048;stroke-width:1.0;"/><text fill="#000000" font-family="sans-serif" font-size="14" lengthAdjust="spacing" textLength="87" x="2506.5" y="410.2363">bool* isVegan</text><ellipse cx="2497.5" cy="423.6172" fill="none" rx="3" ry="3" style="stroke:#038048;stroke-width:1.0;"/><text fill="#000000" font-family="sans-serif" font-size="14" lengthAdjust="spacing" textLength="115" x="2506.5" y="427.8457">bool* isVegetarian</text><line style="stroke:#181818;stroke-width:0.5;" x1="2487.5" x2="2670.5" y1="434.9219" y2="434.9219"/></g><!--MD5=[980d768618229c25601743145de4c34a]
class flutter_complete_guide::models::meal.dart::Complexity--><g id="elem_flutter_complete_guide::models::meal.dart::Complexity"><rect codeLine="36" fill="#F1F1F1" height="136.0469" id="flutter_complete_guide::models::meal.dart::Complexity" rx="2.5" ry="2.5" style="stroke:#181818;stroke-width:0.5;" width="187" x="2364.5" y="503"/><ellipse cx="2419.75" cy="519" fill="#ADD1B2" rx="11" ry="11" style="stroke:#181818;stroke-width:1.0;"/><path d="M2422.5156,514.875 Q2422.6719,514.6563 2422.8594,514.5469 Q2423.0469,514.4375 2423.2656,514.4375 Q2423.6406,514.4375 2423.875,514.6953 Q2424.1094,514.9531 2424.1094,515.5625 L2424.1094,517.0156 Q2424.1094,517.625 2423.875,517.8906 Q2423.6406,518.1563 2423.2656,518.1563 Q2422.9219,518.1563 2422.7188,517.9531 Q2422.5156,517.7656 2422.4063,517.25 Q2422.3594,516.8906 2422.1719,516.7031 Q2421.8438,516.3281 2421.2344,516.1094 Q2420.625,515.8906 2420,515.8906 Q2419.2344,515.8906 2418.6016,516.2188 Q2417.9688,516.5469 2417.4766,517.2969 Q2416.9844,518.0469 2416.9844,519.0781 L2416.9844,520.1719 Q2416.9844,521.4063 2417.875,522.2266 Q2418.7656,523.0469 2420.3594,523.0469 Q2421.2969,523.0469 2421.9531,522.7969 Q2422.3438,522.6406 2422.7656,522.2031 Q2423.0313,521.9375 2423.1797,521.8594 Q2423.3281,521.7813 2423.5313,521.7813 Q2423.8594,521.7813 2424.1172,522.0391 Q2424.375,522.2969 2424.375,522.6406 Q2424.375,522.9844 2424.0313,523.3906 Q2423.5313,523.9688 2422.7344,524.2969 Q2421.6563,524.75 2420.3594,524.75 Q2418.8438,524.75 2417.6406,524.125 Q2416.6563,523.625 2415.9688,522.5547 Q2415.2813,521.4844 2415.2813,520.2031 L2415.2813,519.0469 Q2415.2813,517.7188 2415.8984,516.5703 Q2416.5156,515.4219 2417.6094,514.8047 Q2418.7031,514.1875 2419.9375,514.1875 Q2420.6719,514.1875 2421.3203,514.3516 Q2421.9688,514.5156 2422.5156,514.875 Z " fill="#000000"/><text fill="#000000" font-family="sans-serif" font-size="14" lengthAdjust="spacing" textLength="68" x="2440.25" y="524.7285">Complexity</text><line style="stroke:#181818;stroke-width:0.5;" x1="2365.5" x2="2550.5" y1="535" y2="535"/><ellipse cx="2375.5" cy="549.3047" fill="none" rx="3" ry="3" style="stroke:#038048;stroke-width:1.0;"/><text fill="#000000" font-family="sans-serif" font-size="14" lengthAdjust="spacing" textLength="57" x="2384.5" y="553.5332">int* index</text><ellipse cx="2375.5" cy="566.9141" fill="none" rx="3" ry="3" style="stroke:#038048;stroke-width:1.0;"/><text fill="#000000" font-family="sans-serif" font-size="14" lengthAdjust="spacing" text-decoration="underline" textLength="161" x="2384.5" y="571.1426">List&lt;Complexity*&gt;* values</text><ellipse cx="2375.5" cy="584.5234" fill="none" rx="3" ry="3" style="stroke:#038048;stroke-width:1.0;"/><text fill="#000000" font-family="sans-serif" font-size="14" lengthAdjust="spacing" text-decoration="underline" textLength="119" x="2384.5" y="588.752">Complexity* Simple</text><ellipse cx="2375.5" cy="602.1328" fill="none" rx="3" ry="3" style="stroke:#038048;stroke-width:1.0;"/><text fill="#000000" font-family="sans-serif" font-size="14" lengthAdjust="spacing" text-decoration="underline" textLength="152" x="2384.5" y="606.3613">Complexity* Challenging</text><ellipse cx="2375.5" cy="619.7422" fill="none" rx="3" ry="3" style="stroke:#038048;stroke-width:1.0;"/><text fill="#000000" font-family="sans-serif" font-size="14" lengthAdjust="spacing" text-decoration="underline" textLength="107" x="2384.5" y="623.9707">Complexity* Hard</text><line style="stroke:#181818;stroke-width:0.5;" x1="2365.5" x2="2550.5" y1="631.0469" y2="631.0469"/></g><!--MD5=[fb9b7a63417c7675c662243038c1e4e8]
class flutter_complete_guide::models::meal.dart::Affordability--><g id="elem_flutter_complete_guide::models::meal.dart::Affordability"><rect codeLine="47" fill="#F1F1F1" height="136.0469" id="flutter_complete_guide::models::meal.dart::Affordability" rx="2.5" ry="2.5" style="stroke:#181818;stroke-width:0.5;" width="193" x="2604.5" y="503"/><ellipse cx="2659.75" cy="519" fill="#ADD1B2" rx="11" ry="11" style="stroke:#181818;stroke-width:1.0;"/><path d="M2662.5156,514.875 Q2662.6719,514.6563 2662.8594,514.5469 Q2663.0469,514.4375 2663.2656,514.4375 Q2663.6406,514.4375 2663.875,514.6953 Q2664.1094,514.9531 2664.1094,515.5625 L2664.1094,517.0156 Q2664.1094,517.625 2663.875,517.8906 Q2663.6406,518.1563 2663.2656,518.1563 Q2662.9219,518.1563 2662.7188,517.9531 Q2662.5156,517.7656 2662.4063,517.25 Q2662.3594,516.8906 2662.1719,516.7031 Q2661.8438,516.3281 2661.2344,516.1094 Q2660.625,515.8906 2660,515.8906 Q2659.2344,515.8906 2658.6016,516.2188 Q2657.9688,516.5469 2657.4766,517.2969 Q2656.9844,518.0469 2656.9844,519.0781 L2656.9844,520.1719 Q2656.9844,521.4063 2657.875,522.2266 Q2658.7656,523.0469 2660.3594,523.0469 Q2661.2969,523.0469 2661.9531,522.7969 Q2662.3438,522.6406 2662.7656,522.2031 Q2663.0313,521.9375 2663.1797,521.8594 Q2663.3281,521.7813 2663.5313,521.7813 Q2663.8594,521.7813 2664.1172,522.0391 Q2664.375,522.2969 2664.375,522.6406 Q2664.375,522.9844 2664.0313,523.3906 Q2663.5313,523.9688 2662.7344,524.2969 Q2661.6563,524.75 2660.3594,524.75 Q2658.8438,524.75 2657.6406,524.125 Q2656.6563,523.625 2655.9688,522.5547 Q2655.2813,521.4844 2655.2813,520.2031 L2655.2813,519.0469 Q2655.2813,517.7188 2655.8984,516.5703 Q2656.5156,515.4219 2657.6094,514.8047 Q2658.7031,514.1875 2659.9375,514.1875 Q2660.6719,514.1875 2661.3203,514.3516 Q2661.9688,514.5156 2662.5156,514.875 Z " fill="#000000"/><text fill="#000000" font-family="sans-serif" font-size="14" lengthAdjust="spacing" textLength="74" x="2680.25" y="524.7285">Affordability</text><line style="stroke:#181818;stroke-width:0.5;" x1="2605.5" x2="2796.5" y1="535" y2="535"/><ellipse cx="2615.5" cy="549.3047" fill="none" rx="3" ry="3" style="stroke:#038048;stroke-width:1.0;"/><text fill="#000000" font-family="sans-serif" font-size="14" lengthAdjust="spacing" textLength="57" x="2624.5" y="553.5332">int* index</text><ellipse cx="2615.5" cy="566.9141" fill="none" rx="3" ry="3" style="stroke:#038048;stroke-width:1.0;"/><text fill="#000000" font-family="sans-serif" font-size="14" lengthAdjust="spacing" text-decoration="underline" textLength="167" x="2624.5" y="571.1426">List&lt;Affordability*&gt;* values</text><ellipse cx="2615.5" cy="584.5234" fill="none" rx="3" ry="3" style="stroke:#038048;stroke-width:1.0;"/><text fill="#000000" font-family="sans-serif" font-size="14" lengthAdjust="spacing" text-decoration="underline" textLength="148" x="2624.5" y="588.752">Affordability* Affordable</text><ellipse cx="2615.5" cy="602.1328" fill="none" rx="3" ry="3" style="stroke:#038048;stroke-width:1.0;"/><text fill="#000000" font-family="sans-serif" font-size="14" lengthAdjust="spacing" text-decoration="underline" textLength="122" x="2624.5" y="606.3613">Affordability* Pricey</text><ellipse cx="2615.5" cy="619.7422" fill="none" rx="3" ry="3" style="stroke:#038048;stroke-width:1.0;"/><text fill="#000000" font-family="sans-serif" font-size="14" lengthAdjust="spacing" text-decoration="underline" textLength="144" x="2624.5" y="623.9707">Affordability* Luxurious</text><line style="stroke:#181818;stroke-width:0.5;" x1="2605.5" x2="2796.5" y1="631.0469" y2="631.0469"/></g><!--MD5=[d6fa34c106194b2f1b35263c212eef4e]
class dart::core::Enum--><g id="elem_dart::core::Enum"><rect fill="#F1F1F1" height="48" id="dart::core::Enum" rx="2.5" ry="2.5" style="stroke:#181818;stroke-width:0.5;" width="68" x="2872" y="280.5"/><ellipse cx="2887" cy="296.5" fill="#ADD1B2" rx="11" ry="11" style="stroke:#181818;stroke-width:1.0;"/><path d="M2889.7656,292.375 Q2889.9219,292.1563 2890.1094,292.0469 Q2890.2969,291.9375 2890.5156,291.9375 Q2890.8906,291.9375 2891.125,292.1953 Q2891.3594,292.4531 2891.3594,293.0625 L2891.3594,294.5156 Q2891.3594,295.125 2891.125,295.3906 Q2890.8906,295.6563 2890.5156,295.6563 Q2890.1719,295.6563 2889.9688,295.4531 Q2889.7656,295.2656 2889.6563,294.75 Q2889.6094,294.3906 2889.4219,294.2031 Q2889.0938,293.8281 2888.4844,293.6094 Q2887.875,293.3906 2887.25,293.3906 Q2886.4844,293.3906 2885.8516,293.7188 Q2885.2188,294.0469 2884.7266,294.7969 Q2884.2344,295.5469 2884.2344,296.5781 L2884.2344,297.6719 Q2884.2344,298.9063 2885.125,299.7266 Q2886.0156,300.5469 2887.6094,300.5469 Q2888.5469,300.5469 2889.2031,300.2969 Q2889.5938,300.1406 2890.0156,299.7031 Q2890.2813,299.4375 2890.4297,299.3594 Q2890.5781,299.2813 2890.7813,299.2813 Q2891.1094,299.2813 2891.3672,299.5391 Q2891.625,299.7969 2891.625,300.1406 Q2891.625,300.4844 2891.2813,300.8906 Q2890.7813,301.4688 2889.9844,301.7969 Q2888.9063,302.25 2887.6094,302.25 Q2886.0938,302.25 2884.8906,301.625 Q2883.9063,301.125 2883.2188,300.0547 Q2882.5313,298.9844 2882.5313,297.7031 L2882.5313,296.5469 Q2882.5313,295.2188 2883.1484,294.0703 Q2883.7656,292.9219 2884.8594,292.3047 Q2885.9531,291.6875 2887.1875,291.6875 Q2887.9219,291.6875 2888.5703,291.8516 Q2889.2188,292.0156 2889.7656,292.375 Z " fill="#000000"/><text fill="#000000" font-family="sans-serif" font-size="14" lengthAdjust="spacing" textLength="36" x="2901" y="302.2285">Enum</text><line style="stroke:#181818;stroke-width:0.5;" x1="2873" x2="2939" y1="312.5" y2="312.5"/><line style="stroke:#181818;stroke-width:0.5;" x1="2873" x2="2939" y1="320.5" y2="320.5"/></g><!--MD5=[855535a5a67ca9e3174bd67f4987f05f]
class flutter_complete_guide::screens::categories_screen.dart::CategoriesScreen--><g id="elem_flutter_complete_guide::screens::categories_screen.dart::CategoriesScreen"><rect codeLine="58" fill="#F1F1F1" height="65.6094" id="flutter_complete_guide::screens::categories_screen.dart::CategoriesScreen" rx="2.5" ry="2.5" style="stroke:#181818;stroke-width:0.5;" width="146" x="538" y="271.5"/><ellipse cx="553" cy="287.5" fill="#ADD1B2" rx="11" ry="11" style="stroke:#181818;stroke-width:1.0;"/><path d="M555.7656,283.375 Q555.9219,283.1563 556.1094,283.0469 Q556.2969,282.9375 556.5156,282.9375 Q556.8906,282.9375 557.125,283.1953 Q557.3594,283.4531 557.3594,284.0625 L557.3594,285.5156 Q557.3594,286.125 557.125,286.3906 Q556.8906,286.6563 556.5156,286.6563 Q556.1719,286.6563 555.9688,286.4531 Q555.7656,286.2656 555.6563,285.75 Q555.6094,285.3906 555.4219,285.2031 Q555.0938,284.8281 554.4844,284.6094 Q553.875,284.3906 553.25,284.3906 Q552.4844,284.3906 551.8516,284.7188 Q551.2188,285.0469 550.7266,285.7969 Q550.2344,286.5469 550.2344,287.5781 L550.2344,288.6719 Q550.2344,289.9063 551.125,290.7266 Q552.0156,291.5469 553.6094,291.5469 Q554.5469,291.5469 555.2031,291.2969 Q555.5938,291.1406 556.0156,290.7031 Q556.2813,290.4375 556.4297,290.3594 Q556.5781,290.2813 556.7813,290.2813 Q557.1094,290.2813 557.3672,290.5391 Q557.625,290.7969 557.625,291.1406 Q557.625,291.4844 557.2813,291.8906 Q556.7813,292.4688 555.9844,292.7969 Q554.9063,293.25 553.6094,293.25 Q552.0938,293.25 550.8906,292.625 Q549.9063,292.125 549.2188,291.0547 Q548.5313,289.9844 548.5313,288.7031 L548.5313,287.5469 Q548.5313,286.2188 549.1484,285.0703 Q549.7656,283.9219 550.8594,283.3047 Q551.9531,282.6875 553.1875,282.6875 Q553.9219,282.6875 554.5703,282.8516 Q555.2188,283.0156 555.7656,283.375 Z " fill="#000000"/><text fill="#000000" font-family="sans-serif" font-size="14" lengthAdjust="spacing" textLength="114" x="567" y="293.2285">CategoriesScreen</text><line style="stroke:#181818;stroke-width:0.5;" x1="539" x2="683" y1="303.5" y2="303.5"/><line style="stroke:#181818;stroke-width:0.5;" x1="539" x2="683" y1="311.5" y2="311.5"/><ellipse cx="549" cy="325.8047" fill="#84BE84" rx="3" ry="3" style="stroke:#038048;stroke-width:1.0;"/><text fill="#000000" font-family="sans-serif" font-size="14" lengthAdjust="spacing" textLength="93" x="558" y="330.0332">Widget* build()</text></g><!--MD5=[c68554d9183e97e4adbd95170f9aa241]
class flutter_complete_guide::screens::category_meals_screen.dart::CategoryMealsScreen--><g id="elem_flutter_complete_guide::screens::category_meals_screen.dart::CategoryMealsScreen"><rect codeLine="64" fill="#F1F1F1" height="83.2188" id="flutter_complete_guide::screens::category_meals_screen.dart::CategoryMealsScreen" rx="2.5" ry="2.5" style="stroke:#181818;stroke-width:0.5;" width="172" x="864" y="263"/><ellipse cx="879" cy="279" fill="#ADD1B2" rx="11" ry="11" style="stroke:#181818;stroke-width:1.0;"/><path d="M881.7656,274.875 Q881.9219,274.6563 882.1094,274.5469 Q882.2969,274.4375 882.5156,274.4375 Q882.8906,274.4375 883.125,274.6953 Q883.3594,274.9531 883.3594,275.5625 L883.3594,277.0156 Q883.3594,277.625 883.125,277.8906 Q882.8906,278.1563 882.5156,278.1563 Q882.1719,278.1563 881.9688,277.9531 Q881.7656,277.7656 881.6563,277.25 Q881.6094,276.8906 881.4219,276.7031 Q881.0938,276.3281 880.4844,276.1094 Q879.875,275.8906 879.25,275.8906 Q878.4844,275.8906 877.8516,276.2188 Q877.2188,276.5469 876.7266,277.2969 Q876.2344,278.0469 876.2344,279.0781 L876.2344,280.1719 Q876.2344,281.4063 877.125,282.2266 Q878.0156,283.0469 879.6094,283.0469 Q880.5469,283.0469 881.2031,282.7969 Q881.5938,282.6406 882.0156,282.2031 Q882.2813,281.9375 882.4297,281.8594 Q882.5781,281.7813 882.7813,281.7813 Q883.1094,281.7813 883.3672,282.0391 Q883.625,282.2969 883.625,282.6406 Q883.625,282.9844 883.2813,283.3906 Q882.7813,283.9688 881.9844,284.2969 Q880.9063,284.75 879.6094,284.75 Q878.0938,284.75 876.8906,284.125 Q875.9063,283.625 875.2188,282.5547 Q874.5313,281.4844 874.5313,280.2031 L874.5313,279.0469 Q874.5313,277.7188 875.1484,276.5703 Q875.7656,275.4219 876.8594,274.8047 Q877.9531,274.1875 879.1875,274.1875 Q879.9219,274.1875 880.5703,274.3516 Q881.2188,274.5156 881.7656,274.875 Z " fill="#000000"/><text fill="#000000" font-family="sans-serif" font-size="14" lengthAdjust="spacing" textLength="140" x="893" y="284.7285">CategoryMealsScreen</text><line style="stroke:#181818;stroke-width:0.5;" x1="865" x2="1035" y1="295" y2="295"/><ellipse cx="875" cy="309.3047" fill="none" rx="3" ry="3" style="stroke:#038048;stroke-width:1.0;"/><text fill="#000000" font-family="sans-serif" font-size="14" lengthAdjust="spacing" text-decoration="underline" textLength="115" x="884" y="313.5332">String* routeName</text><line style="stroke:#181818;stroke-width:0.5;" x1="865" x2="1035" y1="320.6094" y2="320.6094"/><ellipse cx="875" cy="334.9141" fill="#84BE84" rx="3" ry="3" style="stroke:#038048;stroke-width:1.0;"/><text fill="#000000" font-family="sans-serif" font-size="14" lengthAdjust="spacing" textLength="93" x="884" y="339.1426">Widget* build()</text></g><!--MD5=[2007091a6ff9679562275d2f1c781515]
class flutter_complete_guide::widgets::category_item.dart::CategoryItem--><g id="elem_flutter_complete_guide::widgets::category_item.dart::CategoryItem"><rect codeLine="71" fill="#F1F1F1" height="136.0469" id="flutter_complete_guide::widgets::category_item.dart::CategoryItem" rx="2.5" ry="2.5" style="stroke:#181818;stroke-width:0.5;" width="161" x="1310.5" y="236.5"/><ellipse cx="1345.75" cy="252.5" fill="#ADD1B2" rx="11" ry="11" style="stroke:#181818;stroke-width:1.0;"/><path d="M1348.5156,248.375 Q1348.6719,248.1563 1348.8594,248.0469 Q1349.0469,247.9375 1349.2656,247.9375 Q1349.6406,247.9375 1349.875,248.1953 Q1350.1094,248.4531 1350.1094,249.0625 L1350.1094,250.5156 Q1350.1094,251.125 1349.875,251.3906 Q1349.6406,251.6563 1349.2656,251.6563 Q1348.9219,251.6563 1348.7188,251.4531 Q1348.5156,251.2656 1348.4063,250.75 Q1348.3594,250.3906 1348.1719,250.2031 Q1347.8438,249.8281 1347.2344,249.6094 Q1346.625,249.3906 1346,249.3906 Q1345.2344,249.3906 1344.6016,249.7188 Q1343.9688,250.0469 1343.4766,250.7969 Q1342.9844,251.5469 1342.9844,252.5781 L1342.9844,253.6719 Q1342.9844,254.9063 1343.875,255.7266 Q1344.7656,256.5469 1346.3594,256.5469 Q1347.2969,256.5469 1347.9531,256.2969 Q1348.3438,256.1406 1348.7656,255.7031 Q1349.0313,255.4375 1349.1797,255.3594 Q1349.3281,255.2813 1349.5313,255.2813 Q1349.8594,255.2813 1350.1172,255.5391 Q1350.375,255.7969 1350.375,256.1406 Q1350.375,256.4844 1350.0313,256.8906 Q1349.5313,257.4688 1348.7344,257.7969 Q1347.6563,258.25 1346.3594,258.25 Q1344.8438,258.25 1343.6406,257.625 Q1342.6563,257.125 1341.9688,256.0547 Q1341.2813,254.9844 1341.2813,253.7031 L1341.2813,252.5469 Q1341.2813,251.2188 1341.8984,250.0703 Q1342.5156,248.9219 1343.6094,248.3047 Q1344.7031,247.6875 1345.9375,247.6875 Q1346.6719,247.6875 1347.3203,247.8516 Q1347.9688,248.0156 1348.5156,248.375 Z " fill="#000000"/><text fill="#000000" font-family="sans-serif" font-size="14" lengthAdjust="spacing" textLength="84" x="1364.25" y="258.2285">CategoryItem</text><line style="stroke:#181818;stroke-width:0.5;" x1="1311.5" x2="1470.5" y1="268.5" y2="268.5"/><ellipse cx="1321.5" cy="282.8047" fill="none" rx="3" ry="3" style="stroke:#038048;stroke-width:1.0;"/><text fill="#000000" font-family="sans-serif" font-size="14" lengthAdjust="spacing" textLength="57" x="1330.5" y="287.0332">String* id</text><ellipse cx="1321.5" cy="300.4141" fill="none" rx="3" ry="3" style="stroke:#038048;stroke-width:1.0;"/><text fill="#000000" font-family="sans-serif" font-size="14" lengthAdjust="spacing" textLength="68" x="1330.5" y="304.6426">String* title</text><ellipse cx="1321.5" cy="318.0234" fill="none" rx="3" ry="3" style="stroke:#038048;stroke-width:1.0;"/><text fill="#000000" font-family="sans-serif" font-size="14" lengthAdjust="spacing" textLength="74" x="1330.5" y="322.252">Color* color</text><line style="stroke:#181818;stroke-width:0.5;" x1="1311.5" x2="1470.5" y1="329.3281" y2="329.3281"/><ellipse cx="1321.5" cy="343.6328" fill="#84BE84" rx="3" ry="3" style="stroke:#038048;stroke-width:1.0;"/><text fill="#000000" font-family="sans-serif" font-size="14" lengthAdjust="spacing" textLength="135" x="1330.5" y="347.8613">void selectCategory()</text><ellipse cx="1321.5" cy="361.2422" fill="#84BE84" rx="3" ry="3" style="stroke:#038048;stroke-width:1.0;"/><text fill="#000000" font-family="sans-serif" font-size="14" lengthAdjust="spacing" textLength="93" x="1330.5" y="365.4707">Widget* build()</text></g><!--MD5=[60932464e063078c5b4abeddb1b4be06]
class flutter_complete_guide::widgets::meal_item.dart::MealItem--><g id="elem_flutter_complete_guide::widgets::meal_item.dart::MealItem"><rect codeLine="82" fill="#F1F1F1" height="171.2656" id="flutter_complete_guide::widgets::meal_item.dart::MealItem" rx="2.5" ry="2.5" style="stroke:#181818;stroke-width:0.5;" width="182" x="2126" y="219"/><ellipse cx="2184.75" cy="235" fill="#ADD1B2" rx="11" ry="11" style="stroke:#181818;stroke-width:1.0;"/><path d="M2187.5156,230.875 Q2187.6719,230.6563 2187.8594,230.5469 Q2188.0469,230.4375 2188.2656,230.4375 Q2188.6406,230.4375 2188.875,230.6953 Q2189.1094,230.9531 2189.1094,231.5625 L2189.1094,233.0156 Q2189.1094,233.625 2188.875,233.8906 Q2188.6406,234.1563 2188.2656,234.1563 Q2187.9219,234.1563 2187.7188,233.9531 Q2187.5156,233.7656 2187.4063,233.25 Q2187.3594,232.8906 2187.1719,232.7031 Q2186.8438,232.3281 2186.2344,232.1094 Q2185.625,231.8906 2185,231.8906 Q2184.2344,231.8906 2183.6016,232.2188 Q2182.9688,232.5469 2182.4766,233.2969 Q2181.9844,234.0469 2181.9844,235.0781 L2181.9844,236.1719 Q2181.9844,237.4063 2182.875,238.2266 Q2183.7656,239.0469 2185.3594,239.0469 Q2186.2969,239.0469 2186.9531,238.7969 Q2187.3438,238.6406 2187.7656,238.2031 Q2188.0313,237.9375 2188.1797,237.8594 Q2188.3281,237.7813 2188.5313,237.7813 Q2188.8594,237.7813 2189.1172,238.0391 Q2189.375,238.2969 2189.375,238.6406 Q2189.375,238.9844 2189.0313,239.3906 Q2188.5313,239.9688 2187.7344,240.2969 Q2186.6563,240.75 2185.3594,240.75 Q2183.8438,240.75 2182.6406,240.125 Q2181.6563,239.625 2180.9688,238.5547 Q2180.2813,237.4844 2180.2813,236.2031 L2180.2813,235.0469 Q2180.2813,233.7188 2180.8984,232.5703 Q2181.5156,231.4219 2182.6094,230.8047 Q2183.7031,230.1875 2184.9375,230.1875 Q2185.6719,230.1875 2186.3203,230.3516 Q2186.9688,230.5156 2187.5156,230.875 Z " fill="#000000"/><text fill="#000000" font-family="sans-serif" font-size="14" lengthAdjust="spacing" textLength="56" x="2205.25" y="240.7285">MealItem</text><line style="stroke:#181818;stroke-width:0.5;" x1="2127" x2="2307" y1="251" y2="251"/><ellipse cx="2137" cy="265.3047" fill="none" rx="3" ry="3" style="stroke:#038048;stroke-width:1.0;"/><text fill="#000000" font-family="sans-serif" font-size="14" lengthAdjust="spacing" textLength="68" x="2146" y="269.5332">String* title</text><ellipse cx="2137" cy="282.9141" fill="none" rx="3" ry="3" style="stroke:#038048;stroke-width:1.0;"/><text fill="#000000" font-family="sans-serif" font-size="14" lengthAdjust="spacing" textLength="101" x="2146" y="287.1426">String* imageUrl</text><ellipse cx="2137" cy="300.5234" fill="none" rx="3" ry="3" style="stroke:#038048;stroke-width:1.0;"/><text fill="#000000" font-family="sans-serif" font-size="14" lengthAdjust="spacing" textLength="76" x="2146" y="304.752">int* duration</text><ellipse cx="2137" cy="318.1328" fill="none" rx="3" ry="3" style="stroke:#038048;stroke-width:1.0;"/><text fill="#000000" font-family="sans-serif" font-size="14" lengthAdjust="spacing" textLength="142" x="2146" y="322.3613">Complexity* complexity</text><ellipse cx="2137" cy="335.7422" fill="none" rx="3" ry="3" style="stroke:#038048;stroke-width:1.0;"/><text fill="#000000" font-family="sans-serif" font-size="14" lengthAdjust="spacing" textLength="156" x="2146" y="339.9707">Affordability* affordability</text><line style="stroke:#181818;stroke-width:0.5;" x1="2127" x2="2307" y1="347.0469" y2="347.0469"/><ellipse cx="2137" cy="361.3516" fill="#84BE84" rx="3" ry="3" style="stroke:#038048;stroke-width:1.0;"/><text fill="#000000" font-family="sans-serif" font-size="14" lengthAdjust="spacing" textLength="107" x="2146" y="365.5801">void selectMeal()</text><ellipse cx="2137" cy="378.9609" fill="#84BE84" rx="3" ry="3" style="stroke:#038048;stroke-width:1.0;"/><text fill="#000000" font-family="sans-serif" font-size="14" lengthAdjust="spacing" textLength="93" x="2146" y="383.1895">Widget* build()</text></g><!--MD5=[9da65fef4b62b6cc0c7a3c7fb8ff36a4]
reverse link flutter::src::widgets::framework.dart::StatelessWidget to flutter_complete_guide::main.dart::MyApp--><g id="link_flutter::src::widgets::framework.dart::StatelessWidget_flutter_complete_guide::main.dart::MyApp"><path codeLine="7" d="M862.62,69 C774.69,73.13 636.11,85.49 522,122 C410.57,157.65 292.84,229.55 229.65,271.36 " fill="none" id="flutter::src::widgets::framework.dart::StatelessWidget-backto-flutter_complete_guide::main.dart::MyApp" style="stroke:#181818;stroke-width:1.0;"/><polygon fill="none" points="862.48,62,882.76,68.15,863.07,75.98,862.48,62" style="stroke:#181818;stroke-width:1.0;"/></g><!--MD5=[837c8dc138fe5c4c30b71fc7f016edb5]
reverse link flutter_complete_guide::models::category.dart::Category to dart::ui::Color--><g id="link_flutter_complete_guide::models::category.dart::Category_dart::ui::Color"><path codeLine="15" d="M1639.35,366.74 C1608.73,424.19 1564.56,507.04 1543.32,546.89 " fill="none" id="flutter_complete_guide::models::category.dart::Category-backto-dart::ui::Color" style="stroke:#181818;stroke-width:1.0;"/><polygon fill="none" points="1645.48,355.25,1639.1279,358.6634,1639.8357,365.8397,1646.1877,362.4263,1645.48,355.25" style="stroke:#181818;stroke-width:1.0;"/></g><!--MD5=[595a8ed217693b4770a8dcfb42a798ed]
reverse link flutter_complete_guide::models::meal.dart::Meal to flutter_complete_guide::models::meal.dart::Complexity--><g id="link_flutter_complete_guide::models::meal.dart::Meal_flutter_complete_guide::models::meal.dart::Complexity"><path codeLine="33" d="M2510.48,455.27 C2502.91,471.82 2495.51,488 2488.77,502.74 " fill="none" id="flutter_complete_guide::models::meal.dart::Meal-backto-flutter_complete_guide::models::meal.dart::Complexity" style="stroke:#181818;stroke-width:1.0;"/><polygon fill="none" points="2516.02,443.17,2509.8857,446.9608,2511.0256,454.0813,2517.1599,450.2904,2516.02,443.17" style="stroke:#181818;stroke-width:1.0;"/></g><!--MD5=[9820c4f82037472acb34e84f56021067]
reverse link flutter_complete_guide::models::meal.dart::Meal to flutter_complete_guide::models::meal.dart::Affordability--><g id="link_flutter_complete_guide::models::meal.dart::Meal_flutter_complete_guide::models::meal.dart::Affordability"><path codeLine="34" d="M2648.08,455.27 C2655.72,471.82 2663.18,488 2669.98,502.74 " fill="none" id="flutter_complete_guide::models::meal.dart::Meal-backto-flutter_complete_guide::models::meal.dart::Affordability" style="stroke:#181818;stroke-width:1.0;"/><polygon fill="none" points="2642.5,443.17,2641.3776,450.2932,2647.5212,454.069,2648.6436,446.9458,2642.5,443.17" style="stroke:#181818;stroke-width:1.0;"/></g><!--MD5=[3b7f0d8a2cadab6773fa31f6f8de511b]
reverse link flutter_complete_guide::models::meal.dart::Complexity to flutter_complete_guide::models::meal.dart::Complexity--><g id="link_flutter_complete_guide::models::meal.dart::Complexity_flutter_complete_guide::models::meal.dart::Complexity"><path codeLine="44" d="M2563.96,527.34 C2577.54,534.94 2586.5,549.49 2586.5,571 C2586.5,598.54 2571.81,614.67 2551.56,619.4 " fill="none" id="flutter_complete_guide::models::meal.dart::Complexity-backto-flutter_complete_guide::models::meal.dart::Complexity" style="stroke:#181818;stroke-width:1.0;"/><polygon fill="none" points="2551.56,522.6,2555.7358,528.479,2562.7686,526.8856,2558.5929,521.0066,2551.56,522.6" style="stroke:#181818;stroke-width:1.0;"/></g><!--MD5=[0a6a59689a0fd74ecd1de0cff21d40b3]
reverse link dart::core::Enum to flutter_complete_guide::models::meal.dart::Complexity--><g id="link_dart::core::Enum_flutter_complete_guide::models::meal.dart::Complexity"><path codeLine="45" d="M2893.65,347.65 C2882.45,378.54 2862.89,419.09 2832,443 C2743.34,511.61 2691.94,463.55 2587,503 C2575.31,507.4 2563.31,512.6 2551.57,518.13 " fill="none" id="dart::core::Enum-backto-flutter_complete_guide::models::meal.dart::Complexity" style="stroke:#181818;stroke-width:1.0;"/><polygon fill="none" points="2887.04,345.36,2899.97,328.57,2900.32,349.76,2887.04,345.36" style="stroke:#181818;stroke-width:1.0;"/></g><!--MD5=[8ee10294d42e3a3c06123d09d2b982f0]
reverse link flutter_complete_guide::models::meal.dart::Affordability to flutter_complete_guide::models::meal.dart::Affordability--><g id="link_flutter_complete_guide::models::meal.dart::Affordability_flutter_complete_guide::models::meal.dart::Affordability"><path codeLine="55" d="M2810.02,527.67 C2823.58,535.35 2832.5,549.79 2832.5,571 C2832.5,598.15 2817.89,614.21 2797.62,619.19 " fill="none" id="flutter_complete_guide::models::meal.dart::Affordability-backto-flutter_complete_guide::models::meal.dart::Affordability" style="stroke:#181818;stroke-width:1.0;"/><polygon fill="none" points="2797.62,522.81,2801.7464,528.7238,2808.7924,527.1893,2804.6659,521.2755,2797.62,522.81" style="stroke:#181818;stroke-width:1.0;"/></g><!--MD5=[cd3b6624a946916bc441c798509a35f7]
reverse link dart::core::Enum to flutter_complete_guide::models::meal.dart::Affordability--><g id="link_dart::core::Enum_flutter_complete_guide::models::meal.dart::Affordability"><path codeLine="56" d="M2887.79,347.02 C2874.38,375.39 2854.6,413.1 2832,443 C2816.24,463.85 2797.03,484.45 2778.24,502.79 " fill="none" id="dart::core::Enum-backto-flutter_complete_guide::models::meal.dart::Affordability" style="stroke:#181818;stroke-width:1.0;"/><polygon fill="none" points="2881.49,343.95,2896.19,328.68,2894.22,349.78,2881.49,343.95" style="stroke:#181818;stroke-width:1.0;"/></g><!--MD5=[d1b3f01dce62d92ea83b53c2b96e1c5e]
reverse link flutter::src::widgets::framework.dart::StatelessWidget to flutter_complete_guide::screens::categories_screen.dart::CategoriesScreen--><g id="link_flutter::src::widgets::framework.dart::StatelessWidget_flutter_complete_guide::screens::categories_screen.dart::CategoriesScreen"><path codeLine="62" d="M885.37,99.84 C872.76,106.8 859.8,114.37 848,122 C774.45,169.56 694.73,233.43 649.03,271.34 " fill="none" id="flutter::src::widgets::framework.dart::StatelessWidget-backto-flutter_complete_guide::screens::categories_screen.dart::CategoriesScreen" style="stroke:#181818;stroke-width:1.0;"/><polygon fill="none" points="882.48,93.44,903.41,90.13,889.11,105.77,882.48,93.44" style="stroke:#181818;stroke-width:1.0;"/></g><!--MD5=[e6bf736853e44b24005c2c64e4165fa9]
reverse link flutter::src::widgets::framework.dart::StatelessWidget to flutter_complete_guide::screens::category_meals_screen.dart::CategoryMealsScreen--><g id="link_flutter::src::widgets::framework.dart::StatelessWidget_flutter_complete_guide::screens::category_meals_screen.dart::CategoryMealsScreen"><path codeLine="69" d="M950,110.18 C950,153.58 950,219.98 950,262.57 " fill="none" id="flutter::src::widgets::framework.dart::StatelessWidget-backto-flutter_complete_guide::screens::category_meals_screen.dart::CategoryMealsScreen" style="stroke:#181818;stroke-width:1.0;"/><polygon fill="none" points="943,110.11,950,90.11,957,110.11,943,110.11" style="stroke:#181818;stroke-width:1.0;"/></g><!--MD5=[8c67b97437150005f472ac37709c42c5]
reverse link flutter_complete_guide::widgets::category_item.dart::CategoryItem to dart::ui::Color--><g id="link_flutter_complete_guide::widgets::category_item.dart::CategoryItem_dart::ui::Color"><path codeLine="79" d="M1432.67,384.23 C1462.16,439.95 1499.73,510.91 1518.76,546.87 " fill="none" id="flutter_complete_guide::widgets::category_item.dart::CategoryItem-backto-dart::ui::Color" style="stroke:#181818;stroke-width:1.0;"/><polygon fill="none" points="1426.51,372.59,1425.7777,379.7638,1432.118,383.199,1432.8503,376.0252,1426.51,372.59" style="stroke:#181818;stroke-width:1.0;"/></g><!--MD5=[d3f85f1d1c41ab4f9d9198ebc0e87dca]
reverse link flutter::src::widgets::framework.dart::StatelessWidget to flutter_complete_guide::widgets::category_item.dart::CategoryItem--><g id="link_flutter::src::widgets::framework.dart::StatelessWidget_flutter_complete_guide::widgets::category_item.dart::CategoryItem"><path codeLine="80" d="M1011.13,99.78 C1089.02,141.55 1223.85,213.86 1310.16,260.15 " fill="none" id="flutter::src::widgets::framework.dart::StatelessWidget-backto-flutter_complete_guide::widgets::category_item.dart::CategoryItem" style="stroke:#181818;stroke-width:1.0;"/><polygon fill="none" points="1007.41,105.73,993.09,90.11,1014.02,93.39,1007.41,105.73" style="stroke:#181818;stroke-width:1.0;"/></g><!--MD5=[48dd31a1ecb069638ae43cac5134b19e]
reverse link flutter_complete_guide::widgets::meal_item.dart::MealItem to flutter_complete_guide::models::meal.dart::Complexity--><g id="link_flutter_complete_guide::widgets::meal_item.dart::MealItem_flutter_complete_guide::models::meal.dart::Complexity"><path codeLine="92" d="M2303.3,400.22 C2334.24,434.17 2368.45,471.72 2396.82,502.86 " fill="none" id="flutter_complete_guide::widgets::meal_item.dart::MealItem-backto-flutter_complete_guide::models::meal.dart::Complexity" style="stroke:#181818;stroke-width:1.0;"/><polygon fill="none" points="2294.25,390.28,2295.3273,397.4102,2302.3234,399.1581,2301.2461,392.0279,2294.25,390.28" style="stroke:#181818;stroke-width:1.0;"/></g><!--MD5=[bdb838e0874e9a78489b00536c505dda]
reverse link flutter_complete_guide::widgets::meal_item.dart::MealItem to flutter_complete_guide::models::meal.dart::Affordability--><g id="link_flutter_complete_guide::widgets::meal_item.dart::MealItem_flutter_complete_guide::models::meal.dart::Affordability"><path codeLine="93" d="M2292.84,399.81 C2309.56,416.1 2328.24,431.48 2348,443 C2442.62,498.16 2485.65,461.5 2587,503 C2592.74,505.35 2598.53,507.95 2604.31,510.72 " fill="none" id="flutter_complete_guide::widgets::meal_item.dart::MealItem-backto-flutter_complete_guide::models::meal.dart::Affordability" style="stroke:#181818;stroke-width:1.0;"/><polygon fill="none" points="2283.23,390.13,2284.6167,397.2065,2291.6823,398.6482,2290.2955,391.5717,2283.23,390.13" style="stroke:#181818;stroke-width:1.0;"/></g><!--MD5=[2be8725045df04c59341f42352cd9ab5]
reverse link flutter::src::widgets::framework.dart::StatelessWidget to flutter_complete_guide::widgets::meal_item.dart::MealItem--><g id="link_flutter::src::widgets::framework.dart::StatelessWidget_flutter_complete_guide::widgets::meal_item.dart::MealItem"><path codeLine="94" d="M1037.26,69.88 C1213.55,76.22 1606.56,93.17 1738,122 C1877.85,152.68 2031.25,216.56 2125.84,259.74 " fill="none" id="flutter::src::widgets::framework.dart::StatelessWidget-backto-flutter_complete_guide::widgets::meal_item.dart::MealItem" style="stroke:#181818;stroke-width:1.0;"/><polygon fill="none" points="1036.86,76.87,1017.12,69.17,1037.35,62.88,1036.86,76.87" style="stroke:#181818;stroke-width:1.0;"/></g><!--MD5=[ad8be88d8204c3f6a55cc5de27f2f96d]
@startuml MealAppDiagram
set namespaceSeparator ::

class "flutter_complete_guide::main.dart::MyApp" {
  +Widget* build()
}

"flutter::src::widgets::framework.dart::StatelessWidget" <|- - "flutter_complete_guide::main.dart::MyApp"

class "flutter_complete_guide::models::category.dart::Category" {
  +String* id
  +String* title
  +Color* color
}

"flutter_complete_guide::models::category.dart::Category" o- - "dart::ui::Color"

class "flutter_complete_guide::models::meal.dart::Meal" {
  +String* id
  +List<String*>* categories
  +String* title
  +String* imageUrl
  +List<String*>* ingredients
  +List<String*>* steps
  +int* duration
  +Complexity* complexity
  +Affordability* affordability
  +bool* isGlutenFree
  +bool* isLactoseFree
  +bool* isVegan
  +bool* isVegetarian
}

"flutter_complete_guide::models::meal.dart::Meal" o- - "flutter_complete_guide::models::meal.dart::Complexity"
"flutter_complete_guide::models::meal.dart::Meal" o- - "flutter_complete_guide::models::meal.dart::Affordability"

class "flutter_complete_guide::models::meal.dart::Complexity" {
  +int* index
  {static} +List<Complexity*>* values
  {static} +Complexity* Simple
  {static} +Complexity* Challenging
  {static} +Complexity* Hard
}

"flutter_complete_guide::models::meal.dart::Complexity" o- - "flutter_complete_guide::models::meal.dart::Complexity"
"dart::core::Enum" <|- - "flutter_complete_guide::models::meal.dart::Complexity"

class "flutter_complete_guide::models::meal.dart::Affordability" {
  +int* index
  {static} +List<Affordability*>* values
  {static} +Affordability* Affordable
  {static} +Affordability* Pricey
  {static} +Affordability* Luxurious
}

"flutter_complete_guide::models::meal.dart::Affordability" o- - "flutter_complete_guide::models::meal.dart::Affordability"
"dart::core::Enum" <|- - "flutter_complete_guide::models::meal.dart::Affordability"

class "flutter_complete_guide::screens::categories_screen.dart::CategoriesScreen" {
  +Widget* build()
}

"flutter::src::widgets::framework.dart::StatelessWidget" <|- - "flutter_complete_guide::screens::categories_screen.dart::CategoriesScreen"

class "flutter_complete_guide::screens::category_meals_screen.dart::CategoryMealsScreen" {
  {static} +String* routeName
  +Widget* build()
}

"flutter::src::widgets::framework.dart::StatelessWidget" <|- - "flutter_complete_guide::screens::category_meals_screen.dart::CategoryMealsScreen"

class "flutter_complete_guide::widgets::category_item.dart::CategoryItem" {
  +String* id
  +String* title
  +Color* color
  +void selectCategory()
  +Widget* build()
}

"flutter_complete_guide::widgets::category_item.dart::CategoryItem" o- - "dart::ui::Color"
"flutter::src::widgets::framework.dart::StatelessWidget" <|- - "flutter_complete_guide::widgets::category_item.dart::CategoryItem"

class "flutter_complete_guide::widgets::meal_item.dart::MealItem" {
  +String* title
  +String* imageUrl
  +int* duration
  +Complexity* complexity
  +Affordability* affordability
  +void selectMeal()
  +Widget* build()
}

"flutter_complete_guide::widgets::meal_item.dart::MealItem" o- - "flutter_complete_guide::models::meal.dart::Complexity"
"flutter_complete_guide::widgets::meal_item.dart::MealItem" o- - "flutter_complete_guide::models::meal.dart::Affordability"
"flutter::src::widgets::framework.dart::StatelessWidget" <|- - "flutter_complete_guide::widgets::meal_item.dart::MealItem"


@enduml

PlantUML version 1.2022.7(Mon Aug 22 19:01:30 CEST 2022)
(GPL source distribution)
Java Runtime: Java(TM) SE Runtime Environment
JVM: Java HotSpot(TM) 64-Bit Server VM
Default Encoding: Cp1250
Language: en
Country: US
--></g></svg>